<?xml version="1.0" encoding="UTF-8"?>
<!DOCTYPE svg PUBLIC "-//W3C//DTD SVG 1.1//EN" "http://www.w3.org/Graphics/SVG/1.1/DTD/svg11.dtd">
<svg xmlns="http://www.w3.org/2000/svg" version="1.1" width="1024px" height="1024px" style="shape-rendering:geometricPrecision; text-rendering:geometricPrecision; image-rendering:optimizeQuality; fill-rule:evenodd; clip-rule:evenodd" xmlns:xlink="http://www.w3.org/1999/xlink">
<g><path style="opacity:1" fill="#4088b7" d="M -0.5,-0.5 C 340.833,-0.5 682.167,-0.5 1023.5,-0.5C 1023.5,340.833 1023.5,682.167 1023.5,1023.5C 682.167,1023.5 340.833,1023.5 -0.5,1023.5C -0.5,682.167 -0.5,340.833 -0.5,-0.5 Z"/></g>
<g><path style="opacity:1" fill="#3981b1" d="M 380.5,281.5 C 378.287,280.395 376.12,280.395 374,281.5C 373.544,282.744 374.044,283.577 375.5,284C 374.62,285.356 374.286,286.856 374.5,288.5C 372.08,288.708 369.747,288.374 367.5,287.5C 366.246,289.259 366.579,290.759 368.5,292C 369.938,292.219 371.271,292.719 372.5,293.5C 370.837,297.496 368.671,301.163 366,304.5C 365.333,306.167 365.333,307.833 366,309.5C 367,310.833 368,310.833 369,309.5C 370.929,304.437 373.429,299.77 376.5,295.5C 374.862,300.946 372.528,306.113 369.5,311C 366.783,312.033 364.949,311.2 364,308.5C 362.844,309.993 362.01,309.826 361.5,308C 361.611,306.278 362.111,306.112 363,307.5C 363.667,306.5 363.667,305.5 363,304.5C 361.887,305.711 360.72,305.711 359.5,304.5C 358.808,305.025 358.308,305.692 358,306.5C 356.603,303.693 354.769,303.193 352.5,305C 352.957,305.414 353.291,305.914 353.5,306.5C 351.117,308.385 349.284,310.718 348,313.5C 347.667,312.833 347.333,312.167 347,311.5C 343.426,317.44 338.259,320.274 331.5,320C 330.167,318.667 330.167,317.333 331.5,316C 330.256,315.544 329.423,316.044 329,317.5C 328.308,316.975 327.808,316.308 327.5,315.5C 336.887,315.288 341.054,310.621 340,301.5C 338.186,300.24 336.353,300.24 334.5,301.5C 332.836,304.482 331.503,307.482 330.5,310.5C 330.077,309.735 329.743,308.902 329.5,308C 331.524,305.119 332.857,301.953 333.5,298.5C 342.511,299.186 344.677,303.52 340,311.5C 338.019,313.657 335.686,315.324 333,316.5C 332.517,317.448 332.351,318.448 332.5,319.5C 343.47,317.515 347.97,311.182 346,300.5C 343.406,296.953 339.906,295.119 335.5,295C 336.624,294.751 337.624,294.251 338.5,293.5C 335.09,290.414 333.09,291.08 332.5,295.5C 330.738,295.357 329.071,295.691 327.5,296.5C 327.167,296.167 326.833,295.833 326.5,295.5C 327.098,294.205 327.598,292.872 328,291.5C 331.076,290.712 334.242,290.212 337.5,290C 338.451,289.282 338.617,288.449 338,287.5C 334.837,286.971 331.67,286.638 328.5,286.5C 331.087,282.374 329.754,280.374 324.5,280.5C 323.991,279.741 324.657,279.408 326.5,279.5C 328.867,279.842 331.2,280.342 333.5,281C 332.833,282.333 332.167,283.667 331.5,285C 333.574,284.773 335.574,284.939 337.5,285.5C 339.096,283.136 340.262,280.47 341,277.5C 342.646,279.055 342.979,280.721 342,282.5C 344.206,280.66 346.706,279.826 349.5,280C 347.579,281.241 347.246,282.741 348.5,284.5C 350.059,283.926 351.559,283.26 353,282.5C 353.456,281.256 352.956,280.423 351.5,280C 352,279.833 352.5,279.667 353,279.5C 355.686,280.285 358.186,281.118 360.5,282C 359.332,280.129 359.832,278.629 362,277.5C 362.75,278.126 363.584,278.626 364.5,279C 363.132,282.106 364.132,284.273 367.5,285.5C 368.097,282.952 369.097,280.285 370.5,277.5C 371.333,277.167 372.167,276.833 373,276.5C 375.809,277.813 378.309,279.48 380.5,281.5 Z"/></g>
<g><path style="opacity:1" fill="#f4f8fa" d="M 765.5,287.5 C 767.199,287.34 768.866,287.506 770.5,288C 771.833,289.333 771.833,290.667 770.5,292C 766.559,291.733 762.559,291.566 758.5,291.5C 758.666,296.844 758.499,302.177 758,307.5C 756.822,311.505 754.655,314.838 751.5,317.5C 748.988,318.928 746.322,319.428 743.5,319C 747.69,316.31 751.024,312.81 753.5,308.5C 750.893,307.682 748.226,307.182 745.5,307C 742.02,300.792 743.686,296.626 750.5,294.5C 753.547,296.157 754.88,295.157 754.5,291.5C 748.618,291.232 742.785,291.566 737,292.5C 735.153,291.831 733.986,290.497 733.5,288.5C 739.986,288.406 746.653,288.406 753.5,288.5C 753.731,285.215 752.397,282.715 749.5,281C 756.754,278.076 759.754,280.576 758.5,288.5C 760.95,288.702 763.283,288.369 765.5,287.5 Z"/></g>
<g><path style="opacity:1" fill="#f4f8fa" d="M 380.5,281.5 C 380.714,283.144 380.38,284.644 379.5,286C 380.95,286.117 382.45,285.95 384,285.5C 385.662,285.388 386.829,286.054 387.5,287.5C 384.542,289.755 381.208,291.422 377.5,292.5C 376.873,293.417 376.539,294.417 376.5,295.5C 373.429,299.77 370.929,304.437 369,309.5C 368,310.833 367,310.833 366,309.5C 365.333,307.833 365.333,306.167 366,304.5C 368.671,301.163 370.837,297.496 372.5,293.5C 371.271,292.719 369.938,292.219 368.5,292C 366.579,290.759 366.246,289.259 367.5,287.5C 369.747,288.374 372.08,288.708 374.5,288.5C 374.286,286.856 374.62,285.356 375.5,284C 374.044,283.577 373.544,282.744 374,281.5C 376.12,280.395 378.287,280.395 380.5,281.5 Z"/></g>
<g><path style="opacity:1" fill="#f3f7fa" d="M 324.5,280.5 C 329.754,280.374 331.087,282.374 328.5,286.5C 331.67,286.638 334.837,286.971 338,287.5C 338.617,288.449 338.451,289.282 337.5,290C 334.242,290.212 331.076,290.712 328,291.5C 327.598,292.872 327.098,294.205 326.5,295.5C 326.833,295.833 327.167,296.167 327.5,296.5C 329.071,295.691 330.738,295.357 332.5,295.5C 333.09,291.08 335.09,290.414 338.5,293.5C 337.624,294.251 336.624,294.751 335.5,295C 339.906,295.119 343.406,296.953 346,300.5C 347.97,311.182 343.47,317.515 332.5,319.5C 332.351,318.448 332.517,317.448 333,316.5C 335.686,315.324 338.019,313.657 340,311.5C 344.677,303.52 342.511,299.186 333.5,298.5C 332.857,301.953 331.524,305.119 329.5,308C 329.743,308.902 330.077,309.735 330.5,310.5C 330.158,311.338 329.492,311.672 328.5,311.5C 325.471,312.995 322.304,314.328 319,315.5C 313.859,314.089 312.192,310.755 314,305.5C 316.026,301.974 318.859,299.307 322.5,297.5C 323.466,295.604 323.799,293.604 323.5,291.5C 319.461,292.34 316.461,291.007 314.5,287.5C 317.652,287.288 320.985,287.288 324.5,287.5C 324.768,285.901 324.434,284.568 323.5,283.5C 322.957,283.44 322.624,283.107 322.5,282.5C 323.243,281.818 323.909,281.151 324.5,280.5 Z"/></g>
<g><path style="opacity:1" fill="#f7fafc" d="M 796.5,281.5 C 800.637,281.146 804.637,281.646 808.5,283C 811.769,286.453 812.269,290.286 810,294.5C 805.582,298.247 801.916,302.58 799,307.5C 798.13,302.233 799.797,297.899 804,294.5C 807.56,287.143 805.393,283.977 797.5,285C 797.043,285.414 796.709,285.914 796.5,286.5C 799.844,291.054 798.844,293.221 793.5,293C 790.262,288.017 791.262,284.183 796.5,281.5 Z"/></g>
<g><path style="opacity:1" fill="#3c84b3" d="M 554.5,280.5 C 554.917,279.876 555.584,279.543 556.5,279.5C 559.109,280.796 561.609,281.462 564,281.5C 566.096,280.285 565.929,279.451 563.5,279C 565.026,277.411 566.193,275.577 567,273.5C 566.852,274.825 567.018,275.992 567.5,277C 569.329,277.273 570.829,278.107 572,279.5C 572.414,279.043 572.914,278.709 573.5,278.5C 574.806,281.066 576.639,282.066 579,281.5C 581.586,283.468 584.419,284.634 587.5,285C 584.864,283.59 584.197,281.757 585.5,279.5C 587.292,278.691 589.292,278.191 591.5,278C 589.749,276.451 588.083,275.618 586.5,275.5C 587,274.5 587.5,273.5 588,272.5C 589,272.833 590,273.167 591,273.5C 591.29,271.048 591.956,268.715 593,266.5C 593.333,267.167 593.667,267.833 594,268.5C 595.745,267.044 597.578,265.711 599.5,264.5C 599.109,265.718 599.776,266.552 601.5,267C 600.366,268.016 600.699,268.683 602.5,269C 600.314,269.604 600.148,270.77 602,272.5C 602.333,272.167 602.667,271.833 603,271.5C 604.32,273.817 605.986,275.817 608,277.5C 610.69,276.541 611.024,277.208 609,279.5C 607.506,278.253 606.006,278.253 604.5,279.5C 603.897,280.635 603.564,281.635 603.5,282.5C 601.084,281.681 600.918,282.348 603,284.5C 606.065,281.625 607.899,281.792 608.5,285C 612.192,284.914 612.525,283.581 609.5,281C 611.017,279.221 611.851,279.721 612,282.5C 613,282.5 614,282.5 615,282.5C 616.316,283.974 617.316,285.641 618,287.5C 620.055,284.95 622.221,282.616 624.5,280.5C 624.351,281.552 624.517,282.552 625,283.5C 629.416,285.394 629.582,287.727 625.5,290.5C 624.808,289.975 624.308,289.308 624,288.5C 622.706,289.854 622.54,291.188 623.5,292.5C 622.975,293.192 622.308,293.692 621.5,294C 624.331,296.493 625.998,299.66 626.5,303.5C 627.524,302.147 628.857,301.48 630.5,301.5C 630.665,304.85 630.498,308.183 630,311.5C 624.178,313.611 624.012,316.277 629.5,319.5C 630.998,317.841 632.498,316.175 634,314.5C 635.059,314.63 635.892,315.13 636.5,316C 645.833,316.667 655.167,316.667 664.5,316C 667.468,313.822 667.135,312.656 663.5,312.5C 664.506,311.604 664.506,310.938 663.5,310.5C 663.334,306.154 663.501,301.821 664,297.5C 667.405,296.532 667.905,295.032 665.5,293C 664.207,292.51 662.873,292.343 661.5,292.5C 660.808,288.279 661.808,284.613 664.5,281.5C 663.061,279.447 661.061,278.447 658.5,278.5C 661.714,277.718 665.048,276.885 668.5,276C 668.888,274.475 668.888,272.808 668.5,271C 670.131,269.164 670.798,269.664 670.5,272.5C 674.099,272.738 674.433,271.738 671.5,269.5C 672.833,268.167 674.167,268.167 675.5,269.5C 674.371,271.529 674.871,271.863 677,270.5C 677.333,271.167 677.667,271.833 678,272.5C 679.699,271.594 681.533,271.261 683.5,271.5C 683.312,273.103 683.812,274.437 685,275.5C 685.684,274.216 685.517,273.049 684.5,272C 685.449,271.383 686.282,271.549 687,272.5C 688.993,270.594 688.493,269.427 685.5,269C 688.668,266.825 690.835,267.659 692,271.5C 694.634,270.045 697.134,268.378 699.5,266.5C 700.167,267.5 700.833,268.5 701.5,269.5C 702.696,269.154 702.696,268.654 701.5,268C 703.494,266.632 705.494,266.132 707.5,266.5C 706.833,265.5 706.167,264.5 705.5,263.5C 706.631,262.396 707.465,262.729 708,264.5C 708.667,261.833 709.333,261.833 710,264.5C 710.914,263.346 711.747,263.513 712.5,265C 712.167,265.333 711.833,265.667 711.5,266C 713.279,265.021 714.945,265.354 716.5,267C 717.659,271.085 719.993,272.085 723.5,270C 722.72,268.927 722.887,267.76 724,266.5C 724.333,267.833 724.667,269.167 725,270.5C 725.833,269 727,267.833 728.5,267C 727.5,266.667 726.5,266.333 725.5,266C 726.227,264.601 726.727,263.101 727,261.5C 727.359,264.544 728.026,264.878 729,262.5C 729.309,263.766 729.809,264.933 730.5,266C 730.167,266.333 729.833,266.667 729.5,267C 730.448,267.483 731.448,267.649 732.5,267.5C 730.888,271.395 732.222,273.228 736.5,273C 734,272.167 733.833,271 736,269.5C 736.333,270.167 736.667,270.833 737,271.5C 738,270.167 739,268.833 740,267.5C 740.667,268.833 741.333,270.167 742,271.5C 742.667,268.833 743.333,268.833 744,271.5C 744.249,270.376 744.749,269.376 745.5,268.5C 746.833,268.833 748.167,269.167 749.5,269.5C 750.167,270.833 750.833,272.167 751.5,273.5C 752.167,272.833 752.833,272.167 753.5,271.5C 754.571,273.325 753.904,274.492 751.5,275C 753.594,277.368 756.094,279.202 759,280.5C 759.495,282.473 759.662,284.473 759.5,286.5C 761.735,286.205 763.735,286.539 765.5,287.5C 763.283,288.369 760.95,288.702 758.5,288.5C 759.754,280.576 756.754,278.076 749.5,281C 752.397,282.715 753.731,285.215 753.5,288.5C 746.653,288.406 739.986,288.406 733.5,288.5C 733.986,290.497 735.153,291.831 737,292.5C 742.785,291.566 748.618,291.232 754.5,291.5C 754.88,295.157 753.547,296.157 750.5,294.5C 743.686,296.626 742.02,300.792 745.5,307C 748.226,307.182 750.893,307.682 753.5,308.5C 751.024,312.81 747.69,316.31 743.5,319C 746.322,319.428 748.988,318.928 751.5,317.5C 749.238,320.392 746.405,321.392 743,320.5C 742.805,318.793 742.805,317.126 743,315.5C 741.578,315.406 740.078,315.072 738.5,314.5C 737.312,310.469 735.312,309.136 732.5,310.5C 734.162,312.311 734.328,313.978 733,315.5C 732.751,314.376 732.251,313.376 731.5,312.5C 730.575,313.641 729.741,313.641 729,312.5C 728.869,309.629 727.703,307.295 725.5,305.5C 724.571,306.689 724.238,308.022 724.5,309.5C 725.552,309.351 726.552,309.517 727.5,310C 726.359,310.741 726.359,311.575 727.5,312.5C 726.758,313.287 725.925,313.953 725,314.5C 725.263,313.049 725.096,311.716 724.5,310.5C 723,312.786 722.667,315.119 723.5,317.5C 720.758,321.62 720.091,321.286 721.5,316.5C 720.998,315.479 720.332,315.312 719.5,316C 717.991,317.674 717.324,319.34 717.5,321C 714.156,321.889 710.823,323.389 707.5,325.5C 708.441,325.489 709.108,325.989 709.5,327C 709.355,327.772 709.022,328.439 708.5,329C 707.175,328.852 706.008,329.018 705,329.5C 704.667,327.167 704.333,324.833 704,322.5C 702.807,323.978 702.307,325.312 702.5,326.5C 700.889,325.68 700.222,324.346 700.5,322.5C 695.412,322.374 692.078,324.707 690.5,329.5C 690.089,328.738 689.923,327.738 690,326.5C 688.984,327.634 688.317,327.301 688,325.5C 687.009,326.939 685.676,327.939 684,328.5C 683.383,327.551 683.549,326.718 684.5,326C 683.167,326 681.833,326 680.5,326C 680.833,325.667 681.167,325.333 681.5,325C 680.299,324.097 679.465,322.931 679,321.5C 677.048,323.741 674.882,325.741 672.5,327.5C 669.33,325.179 665.997,323.012 662.5,321C 661.167,320.333 661.167,319.667 662.5,319C 654.5,318.667 646.5,318.333 638.5,318C 637.128,317.598 635.795,317.098 634.5,316.5C 632.29,320.803 629.29,321.47 625.5,318.5C 623.224,319.213 620.891,319.713 618.5,320C 616.667,322.167 614.833,324.333 613,326.5C 612.085,325.672 611.419,324.672 611,323.5C 607.557,324.392 607.057,323.558 609.5,321C 607.667,320.5 606.5,319.333 606,317.5C 603.306,319.024 600.64,320.69 598,322.5C 597.667,322.167 597.333,321.833 597,321.5C 596.667,322.5 596.333,323.5 596,324.5C 594.685,322.684 593.185,321.017 591.5,319.5C 589.022,320.867 587.355,320.867 586.5,319.5C 599.717,316.413 605.551,308.08 604,294.5C 602.155,291.817 599.655,290.15 596.5,289.5C 592.611,290.444 588.944,291.944 585.5,294C 583.343,294.078 581.343,294.245 579.5,294.5C 580.22,297.387 582.053,299.053 585,299.5C 599.558,291.389 603.224,295.055 596,310.5C 593.06,314.037 589.56,316.703 585.5,318.5C 581.519,321.371 578.519,320.371 576.5,315.5C 577.165,313.899 577.499,312.399 577.5,311C 576.149,309.186 575.149,309.519 574.5,312C 572.025,311.743 572.025,310.743 574.5,309C 573.285,306.904 572.451,307.071 572,309.5C 571.667,309.167 571.333,308.833 571,308.5C 570.51,309.793 570.343,311.127 570.5,312.5C 569.5,312.5 568.5,312.5 567.5,312.5C 567.719,313.675 567.386,314.675 566.5,315.5C 565.391,314.41 564.391,314.41 563.5,315.5C 564.711,316.72 564.711,317.887 563.5,319C 561.671,319.273 560.171,320.107 559,321.5C 558.311,320.643 557.478,319.977 556.5,319.5C 556.002,320.603 555.669,321.603 555.5,322.5C 554.636,320.803 553.303,319.637 551.5,319C 552.167,318.667 552.833,318.333 553.5,318C 552.584,317.722 551.918,317.222 551.5,316.5C 553.791,315.458 554.791,313.958 554.5,312C 547.558,312.894 540.558,313.227 533.5,313C 530.9,310.541 530.9,308.041 533.5,305.5C 537.289,301.545 541.956,299.378 547.5,299C 550.329,297.753 552.995,296.253 555.5,294.5C 553.851,293.352 552.351,292.019 551,290.5C 547.878,294.477 543.711,296.477 538.5,296.5C 538.666,292.154 538.499,287.821 538,283.5C 536.211,281.771 534.044,281.104 531.5,281.5C 531.284,283.681 532.117,285.347 534,286.5C 534.27,290.373 534.77,294.206 535.5,298C 534.256,300.382 532.423,302.215 530,303.5C 525.871,309.558 527.038,314.058 533.5,317C 538.489,317.499 543.489,317.666 548.5,317.5C 547.419,318.906 544.752,319.573 540.5,319.5C 536.744,319.246 533.077,318.579 529.5,317.5C 529.089,320.276 529.922,320.943 532,319.5C 536.495,321.937 535.995,323.604 530.5,324.5C 530.06,325.698 529.727,326.865 529.5,328C 527.5,328 525.5,328 523.5,328C 523.833,328.333 524.167,328.667 524.5,329C 522.667,329.5 521.5,330.667 521,332.5C 519.217,329.922 518.051,327.089 517.5,324C 515.487,323.691 515.154,324.358 516.5,326C 515.333,326.5 514.5,327.333 514,328.5C 513.5,328 513,327.5 512.5,327C 513.389,324.124 512.556,321.624 510,319.5C 509.044,320.579 508.211,321.745 507.5,323C 504.827,322.937 504.827,322.271 507.5,321C 506.672,320.085 505.672,319.419 504.5,319C 506.727,318.296 507.06,317.129 505.5,315.5C 506.544,311.477 504.877,308.811 500.5,307.5C 499.34,303.541 499.173,299.541 500,295.5C 501.785,294.76 503.618,294.093 505.5,293.5C 506.823,291.796 506.49,290.463 504.5,289.5C 503.167,290.167 501.833,290.833 500.5,291.5C 499.833,288.5 499.167,285.5 498.5,282.5C 496.253,281.626 493.92,281.292 491.5,281.5C 491.662,283.824 492.828,285.491 495,286.5C 495.497,288.81 495.663,291.143 495.5,293.5C 491.563,293.793 487.73,293.46 484,292.5C 483.289,294.367 483.789,295.867 485.5,297C 488.562,297.741 491.562,297.575 494.5,296.5C 495.484,299.428 495.817,302.428 495.5,305.5C 491.869,305.16 488.536,305.994 485.5,308C 482.019,313.713 483.686,316.879 490.5,317.5C 494.211,317.125 497.211,315.458 499.5,312.5C 500.852,313.524 502.185,314.524 503.5,315.5C 502.811,316.774 501.977,316.774 501,315.5C 500.493,316.996 500.993,318.163 502.5,319C 501.285,321.096 500.451,320.929 500,318.5C 499.751,319.624 499.251,320.624 498.5,321.5C 496.756,322.03 495.256,322.03 494,321.5C 493.689,322.742 494.189,323.742 495.5,324.5C 494.192,326.641 492.692,328.641 491,330.5C 488.404,328.98 485.571,328.147 482.5,328C 484.044,327.71 485.377,327.044 486.5,326C 485.285,323.904 484.451,324.071 484,326.5C 483.333,325.833 482.667,325.167 482,324.5C 480.612,325.554 479.112,325.72 477.5,325C 479.575,323.419 479.575,321.585 477.5,319.5C 474.245,318.34 472.412,316.007 472,312.5C 471.184,307.316 471.35,302.316 472.5,297.5C 472.66,295.801 472.494,294.134 472,292.5C 469.938,298.752 469.438,305.085 470.5,311.5C 467.933,312.673 465.267,313.839 462.5,315C 462.833,315.333 463.167,315.667 463.5,316C 462.382,317.074 461.382,318.24 460.5,319.5C 460.264,318.753 459.93,317.92 459.5,317C 460.167,316.667 460.833,316.333 461.5,316C 460.809,314.933 460.309,313.766 460,312.5C 458.933,314.283 457.433,314.783 455.5,314C 454.751,312.266 454.251,310.433 454,308.5C 453.683,310.301 453.016,310.634 452,309.5C 451.25,310.126 450.416,310.626 449.5,311C 450.252,311.671 450.586,312.504 450.5,313.5C 446.585,312.733 442.585,312.233 438.5,312C 437.107,310.829 436.273,309.329 436,307.5C 433.32,313.02 435.153,316.02 441.5,316.5C 442.952,317.302 444.618,317.802 446.5,318C 441.315,318.704 436.649,317.537 432.5,314.5C 429.777,315.386 427.61,314.386 426,311.5C 425.265,313.871 424.432,316.205 423.5,318.5C 424.04,319.748 424.707,320.915 425.5,322C 425.167,322.167 424.833,322.333 424.5,322.5C 420.25,320.31 417.417,316.977 416,312.5C 415.25,313.126 414.416,313.626 413.5,314C 414.102,315.904 413.602,317.737 412,319.5C 410.951,318.483 409.784,318.316 408.5,319C 409.376,320.585 410.709,321.585 412.5,322C 410.246,323.15 407.913,323.484 405.5,323C 408.368,319.904 407.868,318.737 404,319.5C 400.797,318.431 399.797,316.431 401,313.5C 398.008,318.461 394.508,318.795 390.5,314.5C 390.369,313.761 390.536,313.094 391,312.5C 392.389,314.227 394.056,315.561 396,316.5C 398.188,315.941 398.854,314.607 398,312.5C 396.587,310.586 394.753,309.253 392.5,308.5C 391.792,305.634 391.125,302.8 390.5,300C 388.741,299.202 387.074,299.369 385.5,300.5C 386.348,302.409 386.682,304.409 386.5,306.5C 383.763,306.401 381.096,306.735 378.5,307.5C 379.878,305.942 382.211,304.942 385.5,304.5C 384.415,301.227 384.248,297.894 385,294.5C 389.245,293.641 389.411,292.641 385.5,291.5C 381.899,291.736 378.899,293.07 376.5,295.5C 376.539,294.417 376.873,293.417 377.5,292.5C 381.208,291.422 384.542,289.755 387.5,287.5C 386.829,286.054 385.662,285.388 384,285.5C 382.45,285.95 380.95,286.117 379.5,286C 380.38,284.644 380.714,283.144 380.5,281.5C 382.374,282.63 384.374,283.63 386.5,284.5C 386.109,283.282 386.776,282.448 388.5,282C 388.034,280.701 388.034,279.201 388.5,277.5C 390.144,277.714 391.644,277.38 393,276.5C 393.324,278.569 394.158,278.902 395.5,277.5C 396.192,278.025 396.692,278.692 397,279.5C 398.049,278.483 399.216,278.316 400.5,279C 399.167,279.667 399.167,280.333 400.5,281C 401.784,281.684 402.951,281.517 404,280.5C 403.067,285.001 403.734,285.334 406,281.5C 406.333,281.833 406.667,282.167 407,282.5C 408.507,280.992 410.173,279.659 412,278.5C 413,279.833 414,281.167 415,282.5C 415.617,281.551 415.451,280.718 414.5,280C 417.233,274.289 420.067,274.122 423,279.5C 423.333,279.167 423.667,278.833 424,278.5C 426.508,280.174 429.342,281.174 432.5,281.5C 432.5,280.167 432.5,278.833 432.5,277.5C 436.699,279.872 438.032,283.205 436.5,287.5C 440.151,287.162 441.817,288.828 441.5,292.5C 446.933,292.05 450.6,294.384 452.5,299.5C 455.597,298.229 455.931,296.729 453.5,295C 454.833,294 454.833,293 453.5,292C 454.646,291.355 455.646,290.522 456.5,289.5C 457.696,289.846 457.696,290.346 456.5,291C 457.744,291.456 458.577,290.956 459,289.5C 459.333,290.167 459.667,290.833 460,291.5C 460.273,289.899 460.773,288.399 461.5,287C 459.65,287.595 457.65,288.095 455.5,288.5C 455.703,286.61 455.037,285.11 453.5,284C 454.253,282.513 455.086,282.346 456,283.5C 455.383,281.905 455.716,280.572 457,279.5C 457.308,280.308 457.808,280.975 458.5,281.5C 461.688,278.461 463.855,274.794 465,270.5C 468.357,269.258 468.19,268.424 464.5,268C 465.167,267.833 465.833,267.667 466.5,267.5C 468.793,269.23 471.293,270.563 474,271.5C 473.58,268.894 473.914,266.228 475,263.5C 475.333,264.833 475.667,266.167 476,267.5C 477.067,265.717 478.567,265.217 480.5,266C 478.709,266.415 477.376,267.415 476.5,269C 477.449,269.617 478.282,269.451 479,268.5C 480.667,269.833 482.333,271.167 484,272.5C 484.75,271.874 485.584,271.374 486.5,271C 483.237,270.131 482.904,268.797 485.5,267C 485.167,266.667 484.833,266.333 484.5,266C 486.333,264.833 487.833,263.333 489,261.5C 489,262.833 489,264.167 489,265.5C 489.333,265.167 489.667,264.833 490,264.5C 490.439,267.299 491.772,268.299 494,267.5C 496,269.5 498,271.5 500,273.5C 500.085,271.915 500.251,270.582 500.5,269.5C 501.48,270.981 502.647,272.315 504,273.5C 506.363,272.768 508.863,272.768 511.5,273.5C 511.312,275.103 511.812,276.437 513,277.5C 513.333,277.167 513.667,276.833 514,276.5C 515.399,277.227 516.899,277.727 518.5,278C 518.167,278.333 517.833,278.667 517.5,279C 518.667,279.5 519.5,280.333 520,281.5C 519.667,278.5 519.333,275.5 519,272.5C 521.339,275.006 523.839,277.339 526.5,279.5C 525.975,280.192 525.308,280.692 524.5,281C 525.416,281.374 526.25,281.874 527,282.5C 527.333,280.833 527.667,279.167 528,277.5C 528.5,278.667 529.333,279.5 530.5,280C 532.833,280.667 535.167,280.667 537.5,280C 534.855,278.713 533.855,276.547 534.5,273.5C 536.911,273.863 538.411,272.863 539,270.5C 540.852,272.23 540.686,273.396 538.5,274C 538.833,274.333 539.167,274.667 539.5,275C 542.073,275.194 544.739,275.861 547.5,277C 547.167,277.333 546.833,277.667 546.5,278C 547.833,278.333 549.167,278.667 550.5,279C 550.043,279.414 549.709,279.914 549.5,280.5C 550.76,281.382 551.926,282.382 553,283.5C 553.232,282.263 553.732,281.263 554.5,280.5 Z"/></g>
<g><path style="opacity:1" fill="#f6f9fb" d="M 551.5,316.5 C 550.209,316.263 549.209,316.596 548.5,317.5C 543.489,317.666 538.489,317.499 533.5,317C 527.038,314.058 525.871,309.558 530,303.5C 532.423,302.215 534.256,300.382 535.5,298C 534.77,294.206 534.27,290.373 534,286.5C 532.117,285.347 531.284,283.681 531.5,281.5C 534.044,281.104 536.211,281.771 538,283.5C 538.499,287.821 538.666,292.154 538.5,296.5C 543.711,296.477 547.878,294.477 551,290.5C 552.351,292.019 553.851,293.352 555.5,294.5C 552.995,296.253 550.329,297.753 547.5,299C 541.956,299.378 537.289,301.545 533.5,305.5C 530.9,308.041 530.9,310.541 533.5,313C 540.558,313.227 547.558,312.894 554.5,312C 554.791,313.958 553.791,315.458 551.5,316.5 Z"/></g>
<g><path style="opacity:1" fill="#f6f9fb" d="M 505.5,315.5 C 504.833,315.5 504.167,315.5 503.5,315.5C 502.185,314.524 500.852,313.524 499.5,312.5C 497.211,315.458 494.211,317.125 490.5,317.5C 483.686,316.879 482.019,313.713 485.5,308C 488.536,305.994 491.869,305.16 495.5,305.5C 495.817,302.428 495.484,299.428 494.5,296.5C 491.562,297.575 488.562,297.741 485.5,297C 483.789,295.867 483.289,294.367 484,292.5C 487.73,293.46 491.563,293.793 495.5,293.5C 495.663,291.143 495.497,288.81 495,286.5C 492.828,285.491 491.662,283.824 491.5,281.5C 493.92,281.292 496.253,281.626 498.5,282.5C 499.167,285.5 499.833,288.5 500.5,291.5C 501.833,290.833 503.167,290.167 504.5,289.5C 506.49,290.463 506.823,291.796 505.5,293.5C 503.618,294.093 501.785,294.76 500,295.5C 499.173,299.541 499.34,303.541 500.5,307.5C 504.877,308.811 506.544,311.477 505.5,315.5 Z"/></g>
<g><path style="opacity:1" fill="#eff4f8" d="M 554.5,280.5 C 559.51,280.843 562.177,283.51 562.5,288.5C 561.448,288.649 560.448,288.483 559.5,288C 557.585,285.6 555.919,283.1 554.5,280.5 Z"/></g>
<g><path style="opacity:1" fill="#f4f7fa" d="M 426.5,281.5 C 428.936,281.317 431.103,281.984 433,283.5C 432.782,285.587 432.949,287.587 433.5,289.5C 436.273,287.943 438.607,288.443 440.5,291C 437.099,292.691 433.599,294.191 430,295.5C 426.867,302.232 424.534,309.232 423,316.5C 420.524,318.063 419.024,317.396 418.5,314.5C 420.44,308.348 422.773,302.348 425.5,296.5C 421.844,297.363 419.178,295.863 417.5,292C 417.833,291.5 418.167,291 418.5,290.5C 426.819,293.518 429.152,291.184 425.5,283.5C 425.863,282.817 426.196,282.15 426.5,281.5 Z"/></g>
<g><path style="opacity:1" fill="#f1f6f9" d="M 712.5,280.5 C 718.072,280.718 720.072,283.384 718.5,288.5C 715.328,286.668 713.328,284.001 712.5,280.5 Z"/></g>
<g><path style="opacity:1" fill="#ebf2f7" d="M 585.5,279.5 C 590.295,281.392 595.295,282.392 600.5,282.5C 600.5,283.5 600.5,284.5 600.5,285.5C 596.818,285.665 593.152,285.499 589.5,285C 587.536,283.549 586.203,281.716 585.5,279.5 Z"/></g>
<g><path style="opacity:1" fill="#f3f7fa" d="M 658.5,278.5 C 661.061,278.447 663.061,279.447 664.5,281.5C 661.808,284.613 660.808,288.279 661.5,292.5C 662.873,292.343 664.207,292.51 665.5,293C 667.905,295.032 667.405,296.532 664,297.5C 663.501,301.821 663.334,306.154 663.5,310.5C 659.251,312.461 655.918,311.461 653.5,307.5C 655.326,307.08 657.326,307.08 659.5,307.5C 659.719,306.325 659.386,305.325 658.5,304.5C 654.5,305.167 650.5,305.833 646.5,306.5C 646.167,305.333 645.833,304.167 645.5,303C 643.533,297.295 644.866,296.295 649.5,300C 648.269,301.183 648.269,302.349 649.5,303.5C 650.5,303.167 651.167,302.5 651.5,301.5C 650.41,300.391 650.41,299.391 651.5,298.5C 652.852,299.518 653.852,300.851 654.5,302.5C 655.731,301.349 655.731,300.183 654.5,299C 655.448,298.517 656.448,298.351 657.5,298.5C 657.215,300.288 657.548,301.955 658.5,303.5C 659.474,301.257 659.808,298.924 659.5,296.5C 654.167,296.5 648.833,296.5 643.5,296.5C 643.827,301.544 643.494,306.544 642.5,311.5C 641.833,311.833 641.167,312.167 640.5,312.5C 639.903,306.042 638.903,299.708 637.5,293.5C 638.5,293.5 639.5,293.5 640.5,293.5C 641.486,289.03 641.819,284.363 641.5,279.5C 647.358,279.822 653.025,279.489 658.5,278.5 Z"/></g>
<g><path style="opacity:1" fill="#3c84b3" d="M 323.5,283.5 C 324.434,284.568 324.768,285.901 324.5,287.5C 320.985,287.288 317.652,287.288 314.5,287.5C 316.461,291.007 319.461,292.34 323.5,291.5C 323.799,293.604 323.466,295.604 322.5,297.5C 318.859,299.307 316.026,301.974 314,305.5C 312.192,310.755 313.859,314.089 319,315.5C 322.304,314.328 325.471,312.995 328.5,311.5C 328.918,312.222 329.584,312.722 330.5,313C 329.216,313.684 328.049,313.517 327,312.5C 325.117,315.024 322.617,316.358 319.5,316.5C 319.498,320.541 318.165,321.208 315.5,318.5C 312.463,318.189 309.297,318.522 306,319.5C 305.167,319.333 304.333,319.167 303.5,319C 303.665,317.883 303.998,316.716 304.5,315.5C 303.675,314.614 302.675,314.281 301.5,314.5C 301.541,318.243 300.874,318.41 299.5,315C 298.552,314.517 297.552,314.351 296.5,314.5C 296.302,312.425 296.135,310.425 296,308.5C 297.117,309.949 297.784,311.616 298,313.5C 298.772,312.151 299.939,311.318 301.5,311C 299.314,310.396 299.148,309.23 301,307.5C 302.087,309.932 302.587,309.598 302.5,306.5C 301.325,306.719 300.325,306.386 299.5,305.5C 300.735,303.585 302.068,302.585 303.5,302.5C 303.081,301.328 302.415,300.328 301.5,299.5C 300.604,300.506 299.938,300.506 299.5,299.5C 302.131,297.995 301.797,297.329 298.5,297.5C 298.328,299.492 298.995,301.158 300.5,302.5C 299.418,302.749 298.085,302.915 296.5,303C 297.167,303.333 297.833,303.667 298.5,304C 297.234,304.309 296.067,304.809 295,305.5C 293.829,304.107 292.329,303.273 290.5,303C 291.833,302.333 291.833,301.667 290.5,301C 289.552,300.517 288.552,300.351 287.5,300.5C 286.524,305.225 288.024,308.892 292,311.5C 294.428,315.021 293.928,317.855 290.5,320C 294.767,322.352 294.933,324.185 291,325.5C 289.344,321.696 287.51,318.03 285.5,314.5C 283.164,312.996 281.331,310.996 280,308.5C 279.3,310.032 278.134,311.032 276.5,311.5C 275.5,310.167 274.5,310.167 273.5,311.5C 271.421,313.825 271.255,316.158 273,318.5C 273.333,317.833 273.667,317.167 274,316.5C 274.465,317.931 275.299,319.097 276.5,320C 273.057,320.221 272.724,321.221 275.5,323C 275,323.5 274.5,324 274,324.5C 272.883,323.051 272.216,321.384 272,319.5C 270.853,320.458 269.853,320.125 269,318.5C 266.67,321.182 266.17,320.849 267.5,317.5C 268.5,316.667 269.5,315.833 270.5,315C 269.234,314.691 268.067,314.191 267,313.5C 263.779,318.201 259.612,320.201 254.5,319.5C 253.199,318.116 253.199,316.616 254.5,315C 253.667,314.833 252.833,314.667 252,314.5C 248.077,316.445 244.077,316.778 240,315.5C 238.872,319.461 236.372,320.461 232.5,318.5C 234.335,317.572 234.668,316.406 233.5,315C 235.025,313.991 236.692,313.491 238.5,313.5C 238.5,310.5 238.5,307.5 238.5,304.5C 236.401,303.769 234.401,303.769 232.5,304.5C 232.968,306.134 233.968,307.3 235.5,308C 235,308.167 234.5,308.333 234,308.5C 231.172,306.749 228.505,304.749 226,302.5C 224.233,305.157 225.066,306.99 228.5,308C 227.874,308.75 227.374,309.584 227,310.5C 226,309.167 225,309.167 224,310.5C 222.957,306.774 222.457,307.107 222.5,311.5C 219.206,310.947 217.54,311.947 217.5,314.5C 216.472,312.42 215.138,312.086 213.5,313.5C 208.248,312.715 202.915,312.215 197.5,312C 194.833,309.667 194.833,307.333 197.5,305C 202.833,304.333 208.167,304.333 213.5,305C 216.366,306.816 217.866,305.982 218,302.5C 214.935,299.938 212.435,296.938 210.5,293.5C 212.001,292.248 213.668,291.248 215.5,290.5C 216.784,287.737 215.784,286.07 212.5,285.5C 211.719,286.737 210.719,287.737 209.5,288.5C 208.174,285.01 205.674,282.676 202,281.5C 200.566,281.93 199.399,282.764 198.5,284C 200.976,285.309 202.976,287.142 204.5,289.5C 200.085,290.272 195.752,290.605 191.5,290.5C 192.313,291.814 193.313,292.981 194.5,294C 198.423,294.793 202.256,294.626 206,293.5C 207.743,295.321 209.243,297.321 210.5,299.5C 206.204,300.328 201.871,300.828 197.5,301C 190.578,306.471 190.911,311.471 198.5,316C 203.684,316.816 208.684,316.65 213.5,315.5C 214.363,314.537 215.03,314.537 215.5,315.5C 214.91,316.799 213.91,317.632 212.5,318C 208.5,318.333 204.5,318.667 200.5,319C 204.219,319.388 207.886,320.055 211.5,321C 210.167,321.333 208.833,321.667 207.5,322C 211.093,322.684 211.427,324.184 208.5,326.5C 208.705,322.735 207.872,322.735 206,326.5C 205,324.833 204,323.167 203,321.5C 202.667,323.167 202.333,324.833 202,326.5C 200.887,325.24 200.72,324.073 201.5,323C 199.729,320.887 198.229,321.053 197,323.5C 196.667,323.167 196.333,322.833 196,322.5C 195.647,323.672 195.813,324.838 196.5,326C 194.974,329.158 193.141,329.324 191,326.5C 190.586,326.957 190.086,327.291 189.5,327.5C 187.299,323.778 185.465,324.111 184,328.5C 183.28,326.888 183.446,325.388 184.5,324C 182.009,323.374 182.009,322.541 184.5,321.5C 183.833,320.833 183.167,320.167 182.5,319.5C 183.681,317.197 183.681,314.863 182.5,312.5C 184.652,310.152 184.319,307.818 181.5,305.5C 183.762,303.492 183.262,303.159 180,304.5C 179.667,303.167 179.333,301.833 179,300.5C 178.195,302.901 177.362,302.734 176.5,300C 179.915,297.928 179.915,296.761 176.5,296.5C 176.665,294.173 177.331,292.007 178.5,290C 177.663,288.989 177.33,287.822 177.5,286.5C 180.598,286.413 180.932,286.913 178.5,288C 179.126,288.75 179.626,289.584 180,290.5C 182.592,289.018 184.925,289.352 187,291.5C 189.122,290.78 189.622,289.613 188.5,288C 189,287.5 189.5,287 190,286.5C 193.809,289.092 197.976,289.925 202.5,289C 199.757,286.634 196.757,284.8 193.5,283.5C 193.481,281.94 193.148,280.44 192.5,279C 193.703,275.925 195.203,273.759 197,272.5C 198.974,272.626 201.141,272.792 203.5,273C 203.167,273.333 202.833,273.667 202.5,274C 203.849,274.772 204.682,275.939 205,277.5C 205.718,278.451 206.551,278.617 207.5,278C 206.643,277.311 205.977,276.478 205.5,275.5C 207.015,273.453 207.849,271.119 208,268.5C 208.251,270.433 208.751,272.266 209.5,274C 209.167,274.333 208.833,274.667 208.5,275C 210.112,275.72 211.612,275.554 213,274.5C 214.408,278.169 216.075,278.169 218,274.5C 219.044,275.623 219.71,276.956 220,278.5C 220.667,277.167 221.333,277.167 222,278.5C 222.667,277.167 223.333,275.833 224,274.5C 225.688,275.325 225.855,276.325 224.5,277.5C 225.908,278.243 227.241,279.077 228.5,280C 227.346,280.914 227.513,281.747 229,282.5C 229.626,280.009 230.459,280.009 231.5,282.5C 232.478,282.023 233.311,281.357 234,280.5C 234.333,281.167 234.667,281.833 235,282.5C 238.014,280.187 241.347,279.853 245,281.5C 246.032,279.855 247.199,279.522 248.5,280.5C 249.281,279.271 249.781,277.938 250,276.5C 251.242,277.872 252.742,278.872 254.5,279.5C 255.506,279.062 255.506,278.396 254.5,277.5C 255.325,276.614 256.325,276.281 257.5,276.5C 257.5,277.5 257.5,278.5 257.5,279.5C 259.124,279.36 260.29,280.027 261,281.5C 261.667,280.833 262.333,280.167 263,279.5C 266.265,281.124 268.932,283.457 271,286.5C 273.222,284.722 275.388,284.555 277.5,286C 273.148,286.419 272.815,287.086 276.5,288C 275.833,288.333 275.167,288.667 274.5,289C 278.343,290.994 282.01,292.494 285.5,293.5C 286.814,292.687 287.981,291.687 289,290.5C 289.333,291.833 289.667,293.167 290,294.5C 292,293.167 293.667,291.5 295,289.5C 298.346,291.422 298.346,292.089 295,291.5C 294.667,294.167 295.667,294.833 298,293.5C 298.333,294.167 298.667,294.833 299,295.5C 300.185,293.623 301.185,291.623 302,289.5C 303.281,289.619 304.448,289.119 305.5,288C 305.694,286.57 305.694,285.07 305.5,283.5C 308.081,281.829 307.748,281.329 304.5,282C 304.07,282.92 303.736,283.753 303.5,284.5C 302.643,283.264 301.977,281.931 301.5,280.5C 302.247,280.264 303.08,279.93 304,279.5C 304.569,275.639 305.402,275.639 306.5,279.5C 306.833,279.333 307.167,279.167 307.5,279C 306.483,277.951 306.316,276.784 307,275.5C 308.826,277.179 310.992,278.346 313.5,279C 314.833,280.333 314.833,281.667 313.5,283C 315.291,283.415 316.624,284.415 317.5,286C 319.473,286.495 321.473,286.662 323.5,286.5C 323.5,285.5 323.5,284.5 323.5,283.5 Z"/></g>
<g><path style="opacity:1" fill="#f0f5f8" d="M 549.5,283.5 C 554.458,284.588 556.791,287.421 556.5,292C 555.551,292.617 554.718,292.451 554,291.5C 552.223,288.941 550.723,286.274 549.5,283.5 Z"/></g>
<g><path style="opacity:1" fill="#f0f5f9" d="M 686.5,284.5 C 692.682,286.087 699.015,286.921 705.5,287C 706.973,287.71 707.64,288.876 707.5,290.5C 695.701,291.461 690.201,297.794 691,309.5C 698.254,310.018 705.421,310.851 712.5,312C 711.833,312.667 711.167,313.333 710.5,314C 704.539,315.239 698.539,315.573 692.5,315C 688.483,313.321 686.483,310.321 686.5,306C 686.641,299.866 689.307,295.199 694.5,292C 689.987,291.317 687.32,288.817 686.5,284.5 Z"/></g>
<g><path style="opacity:1" fill="#f5f8fa" d="M 707.5,283.5 C 711.964,284.298 714.297,286.964 714.5,291.5C 710.351,290.595 708.018,287.928 707.5,283.5 Z"/></g>
<g><path style="opacity:1" fill="#f6fafc" d="M 481.5,287.5 C 482.675,287.281 483.675,287.614 484.5,288.5C 482.948,289.798 481.948,289.465 481.5,287.5 Z"/></g>
<g><path style="opacity:1" fill="#0e659f" d="M 658.5,278.5 C 653.025,279.489 647.358,279.822 641.5,279.5C 641.819,284.363 641.486,289.03 640.5,293.5C 640.082,292.778 639.416,292.278 638.5,292C 640.399,287.822 641.065,283.322 640.5,278.5C 646.5,278.5 652.5,278.5 658.5,278.5 Z"/></g>
<g><path style="opacity:1" fill="#e9f1f6" d="M 254.5,319.5 C 254.351,318.448 254.517,317.448 255,316.5C 260.708,314.822 263.042,311.155 262,305.5C 260.267,303.398 258.267,303.065 256,304.5C 255.086,306.664 253.919,308.664 252.5,310.5C 255.047,313.126 254.547,313.793 251,312.5C 248.253,314.959 245.086,315.792 241.5,315C 238.49,309.164 240.156,304.997 246.5,302.5C 247.244,301.009 247.91,299.509 248.5,298C 246.5,297.667 244.5,297.333 242.5,297C 240.993,296.163 240.493,294.996 241,293.5C 243.381,294.435 245.881,294.768 248.5,294.5C 248.579,293.07 248.246,291.736 247.5,290.5C 249.421,289.359 251.421,289.192 253.5,290C 254.668,291.406 254.335,292.572 252.5,293.5C 255.107,294.318 257.774,294.818 260.5,295C 261.345,296.558 260.679,297.558 258.5,298C 261.167,298.667 261.167,299.333 258.5,300C 265.588,301.42 268.088,305.587 266,312.5C 263.161,316.502 259.327,318.835 254.5,319.5 Z"/></g>
<g><path style="opacity:1" fill="#ecf3f7" d="M 389.5,289.5 C 394.973,289.974 397.64,292.974 397.5,298.5C 395.334,298.421 393.334,297.754 391.5,296.5C 389.726,296.887 388.059,297.553 386.5,298.5C 385.417,297.635 385.251,296.635 386,295.5C 387.509,294.91 389.009,294.244 390.5,293.5C 388.824,292.272 388.491,290.939 389.5,289.5 Z"/></g>
<g><path style="opacity:1" fill="#f2f7f9" d="M 586.5,319.5 C 586.5,318.833 586.167,318.5 585.5,318.5C 589.56,316.703 593.06,314.037 596,310.5C 603.224,295.055 599.558,291.389 585,299.5C 582.053,299.053 580.22,297.387 579.5,294.5C 581.343,294.245 583.343,294.078 585.5,294C 588.944,291.944 592.611,290.444 596.5,289.5C 599.655,290.15 602.155,291.817 604,294.5C 605.551,308.08 599.717,316.413 586.5,319.5 Z"/></g>
<g><path style="opacity:1" fill="#3175aa" d="M 645.5,283.5 C 649.5,283.5 653.5,283.5 657.5,283.5C 657.5,286.833 657.5,290.167 657.5,293.5C 651.248,293.541 650.915,292.208 656.5,289.5C 654.513,287.673 652.179,286.673 649.5,286.5C 649.993,288.806 650.326,291.139 650.5,293.5C 648.833,293.5 647.167,293.5 645.5,293.5C 645.5,290.167 645.5,286.833 645.5,283.5 Z"/></g>
<g><path style="opacity:1" fill="#f3f7fa" d="M 440.5,293.5 C 442.989,293.298 445.323,293.798 447.5,295C 450.435,297.856 449.935,299.689 446,300.5C 441.789,300.472 438.289,298.972 435.5,296C 437.653,295.901 439.319,295.067 440.5,293.5 Z"/></g>
<g><path style="opacity:1" fill="#f3f7fa" d="M 213.5,313.5 C 213.5,314.167 213.5,314.833 213.5,315.5C 208.684,316.65 203.684,316.816 198.5,316C 190.911,311.471 190.578,306.471 197.5,301C 201.871,300.828 206.204,300.328 210.5,299.5C 209.243,297.321 207.743,295.321 206,293.5C 202.256,294.626 198.423,294.793 194.5,294C 193.313,292.981 192.313,291.814 191.5,290.5C 195.752,290.605 200.085,290.272 204.5,289.5C 202.976,287.142 200.976,285.309 198.5,284C 199.399,282.764 200.566,281.93 202,281.5C 205.674,282.676 208.174,285.01 209.5,288.5C 210.719,287.737 211.719,286.737 212.5,285.5C 215.784,286.07 216.784,287.737 215.5,290.5C 213.668,291.248 212.001,292.248 210.5,293.5C 212.435,296.938 214.935,299.938 218,302.5C 217.866,305.982 216.366,306.816 213.5,305C 208.167,304.333 202.833,304.333 197.5,305C 194.833,307.333 194.833,309.667 197.5,312C 202.915,312.215 208.248,312.715 213.5,313.5 Z"/></g>
<g><path style="opacity:1" fill="#ecf2f6" d="M 472.5,297.5 C 475.073,293.21 475.073,288.877 472.5,284.5C 475.763,284.129 478.429,285.463 480.5,288.5C 476.979,293.692 475.813,299.359 477,305.5C 477.732,303.077 479.232,301.91 481.5,302C 479.934,306.705 478.768,311.538 478,316.5C 477.586,316.957 477.086,317.291 476.5,317.5C 474.3,315.747 473.133,313.414 473,310.5C 472.501,306.179 472.334,301.846 472.5,297.5 Z"/></g>
<g><path style="opacity:1" fill="#f1f5f8" d="M 663.5,312.5 C 667.135,312.656 667.468,313.822 664.5,316C 655.167,316.667 645.833,316.667 636.5,316C 635.892,315.13 635.059,314.63 634,314.5C 632.498,316.175 630.998,317.841 629.5,319.5C 624.012,316.277 624.178,313.611 630,311.5C 630.498,308.183 630.665,304.85 630.5,301.5C 629.432,300.566 628.099,300.232 626.5,300.5C 626.5,299.167 626.5,297.833 626.5,296.5C 629.857,295.373 633.191,295.373 636.5,296.5C 635.088,299.426 634.422,302.593 634.5,306C 634.536,308.094 634.869,310.094 635.5,312C 644.779,313.83 654.112,313.997 663.5,312.5 Z"/></g>
<g><path style="opacity:1" fill="#1f69a2" d="M 251.5,297.5 C 253.199,297.34 254.866,297.506 256.5,298C 255.383,299.892 253.716,300.725 251.5,300.5C 251.5,299.5 251.5,298.5 251.5,297.5 Z"/></g>
<g><path style="opacity:1" fill="#f3f7fa" d="M 390.5,314.5 C 386.716,317.424 382.383,318.257 377.5,317C 374.753,313.553 375.087,310.386 378.5,307.5C 381.096,306.735 383.763,306.401 386.5,306.5C 386.682,304.409 386.348,302.409 385.5,300.5C 387.074,299.369 388.741,299.202 390.5,300C 391.125,302.8 391.792,305.634 392.5,308.5C 394.753,309.253 396.587,310.586 398,312.5C 398.854,314.607 398.188,315.941 396,316.5C 394.056,315.561 392.389,314.227 391,312.5C 390.536,313.094 390.369,313.761 390.5,314.5 Z"/></g>
<g><path style="opacity:1" fill="#3675a9" d="M 326.5,298.5 C 327.978,298.238 329.311,298.571 330.5,299.5C 327.752,306.32 326.418,305.987 326.5,298.5 Z"/></g>
<g><path style="opacity:1" fill="#2e76aa" d="M 633.5,289.5 C 635.377,288.341 635.877,286.674 635,284.5C 632.93,282.213 630.43,280.547 627.5,279.5C 626.5,279.833 625.833,280.5 625.5,281.5C 628.471,283.443 630.471,286.109 631.5,289.5C 631.5,290.833 631.5,292.167 631.5,293.5C 629.801,293.34 628.134,293.506 626.5,294C 629.557,294.256 632.557,294.756 635.5,295.5C 636.182,294.757 636.849,294.091 637.5,293.5C 638.903,299.708 639.903,306.042 640.5,312.5C 641.167,312.167 641.833,311.833 642.5,311.5C 643.494,306.544 643.827,301.544 643.5,296.5C 648.833,296.5 654.167,296.5 659.5,296.5C 659.808,298.924 659.474,301.257 658.5,303.5C 657.548,301.955 657.215,300.288 657.5,298.5C 656.448,298.351 655.448,298.517 654.5,299C 655.731,300.183 655.731,301.349 654.5,302.5C 653.852,300.851 652.852,299.518 651.5,298.5C 650.41,299.391 650.41,300.391 651.5,301.5C 651.167,302.5 650.5,303.167 649.5,303.5C 648.269,302.349 648.269,301.183 649.5,300C 644.866,296.295 643.533,297.295 645.5,303C 645.833,304.167 646.167,305.333 646.5,306.5C 650.5,305.833 654.5,305.167 658.5,304.5C 659.386,305.325 659.719,306.325 659.5,307.5C 657.326,307.08 655.326,307.08 653.5,307.5C 655.918,311.461 659.251,312.461 663.5,310.5C 664.506,310.938 664.506,311.604 663.5,312.5C 654.112,313.997 644.779,313.83 635.5,312C 634.869,310.094 634.536,308.094 634.5,306C 634.422,302.593 635.088,299.426 636.5,296.5C 633.191,295.373 629.857,295.373 626.5,296.5C 626.5,297.833 626.5,299.167 626.5,300.5C 628.099,300.232 629.432,300.566 630.5,301.5C 628.857,301.48 627.524,302.147 626.5,303.5C 625.998,299.66 624.331,296.493 621.5,294C 622.308,293.692 622.975,293.192 623.5,292.5C 622.54,291.188 622.706,289.854 624,288.5C 624.308,289.308 624.808,289.975 625.5,290.5C 629.582,287.727 629.416,285.394 625,283.5C 624.517,282.552 624.351,281.552 624.5,280.5C 624.962,279.12 625.962,278.453 627.5,278.5C 634.047,279.524 636.881,283.191 636,289.5C 635.023,290.774 634.189,290.774 633.5,289.5 Z"/></g>
<g><path style="opacity:1" fill="#f0f5f8" d="M 633.5,289.5 C 632.833,289.5 632.167,289.5 631.5,289.5C 630.471,286.109 628.471,283.443 625.5,281.5C 625.833,280.5 626.5,279.833 627.5,279.5C 630.43,280.547 632.93,282.213 635,284.5C 635.877,286.674 635.377,288.341 633.5,289.5 Z"/></g>
<g><path style="opacity:1" fill="#377bad" d="M 748.5,298.5 C 750.5,298.5 752.5,298.5 754.5,298.5C 754.919,303.698 752.752,305.365 748,303.5C 747.36,301.735 747.527,300.068 748.5,298.5 Z"/></g>
<g><path style="opacity:1" fill="#2465a0" d="M 252.5,302.5 C 253.334,304.263 252.834,305.93 251,307.5C 250.36,305.457 250.86,303.79 252.5,302.5 Z"/></g>
<g><path style="opacity:1" fill="#f5f8fa" d="M 285.5,314.5 C 284.611,312.264 283.278,310.264 281.5,308.5C 287.038,307.821 290.704,310.321 292.5,316C 292.333,317.5 291.5,318.333 290,318.5C 288.285,317.396 286.785,316.062 285.5,314.5 Z"/></g>
<g><path style="opacity:1" fill="#f6f9fb" d="M 450.5,313.5 C 450.586,314.496 450.252,315.329 449.5,316C 446.854,316.497 444.187,316.664 441.5,316.5C 435.153,316.02 433.32,313.02 436,307.5C 436.273,309.329 437.107,310.829 438.5,312C 442.585,312.233 446.585,312.733 450.5,313.5 Z"/></g>
<g><path style="opacity:1" fill="#2d72a8" d="M 322.5,300.5 C 327.3,306.488 325.633,310.155 317.5,311.5C 317.277,306.948 318.944,303.281 322.5,300.5 Z"/></g>
<g><path style="opacity:1" fill="#2c71a7" d="M 247.5,304.5 C 250.713,308.382 249.713,311.049 244.5,312.5C 243.5,312.167 242.833,311.5 242.5,310.5C 244.19,308.481 245.856,306.481 247.5,304.5 Z"/></g>
<g><path style="opacity:1" fill="#3075ab" d="M 380.5,310.5 C 382.604,310.201 384.604,310.534 386.5,311.5C 384.992,314.418 382.825,315.084 380,313.5C 379.53,312.423 379.697,311.423 380.5,310.5 Z"/></g>
<g><path style="opacity:1" fill="#3075ab" d="M 488.5,309.5 C 490.5,309.5 492.5,309.5 494.5,309.5C 493.925,313.473 491.758,314.473 488,312.5C 487.53,311.423 487.697,310.423 488.5,309.5 Z"/></g>
<g><path style="opacity:1" fill="#f9fbfd" d="M 797.5,312.5 C 801.938,311.425 803.938,313.092 803.5,317.5C 801.473,317.662 799.473,317.495 797.5,317C 796.272,315.51 796.272,314.01 797.5,312.5 Z"/></g>
<g><path style="opacity:1" fill="#0f67a2" d="M 634.5,387.5 C 616.49,387.423 598.49,387.757 580.5,388.5C 588.102,386.983 599.102,386.316 613.5,386.5C 620.675,386.5 627.675,386.834 634.5,387.5 Z"/></g>
<g><path style="opacity:1" fill="#fbfcfd" d="M 634.5,387.5 C 649.5,387.5 664.5,387.5 679.5,387.5C 697.163,387.989 714.83,388.322 732.5,388.5C 780.528,390.623 828.528,394.79 876.5,401C 847.869,399.459 819.203,398.293 790.5,397.5C 760.172,396.767 729.839,396.433 699.5,396.5C 600.708,396.149 503.042,406.315 406.5,427C 355.452,437.678 307.452,456.011 262.5,482C 213.829,511.477 181.663,553.643 166,608.5C 161.114,626.578 159.614,644.911 161.5,663.5C 153.833,663.5 146.167,663.5 138.5,663.5C 138.5,605.167 138.5,546.833 138.5,488.5C 140.167,488.5 141.833,488.5 143.5,488.5C 143.168,520.338 143.502,552.004 144.5,583.5C 144.334,592.839 144.5,602.173 145,611.5C 145.847,605.416 147.013,599.416 148.5,593.5C 161.343,547.152 187.343,509.986 226.5,482C 254.878,462.477 285.212,446.644 317.5,434.5C 332.378,429.429 347.378,424.763 362.5,420.5C 411.706,407.445 461.706,398.612 512.5,394C 535.301,391.926 557.967,390.093 580.5,388.5C 598.49,387.757 616.49,387.423 634.5,387.5 Z"/></g>
<g><path style="opacity:1" fill="#2370a8" d="M 732.5,388.5 C 714.83,388.322 697.163,387.989 679.5,387.5C 666.006,386.669 652.339,386.169 638.5,386C 674.185,385.51 709.851,386.177 745.5,388C 741.179,388.499 736.846,388.666 732.5,388.5 Z"/></g>
<g><path style="opacity:1" fill="#2d77ac" d="M 699.5,396.5 C 729.839,396.433 760.172,396.767 790.5,397.5C 761.003,398.664 731.336,398.831 701.5,398C 700.584,397.722 699.918,397.222 699.5,396.5 Z"/></g>
<g><path style="opacity:1" fill="#216ea6" d="M 362.5,420.5 C 347.378,424.763 332.378,429.429 317.5,434.5C 317.062,434.565 316.728,434.399 316.5,434C 330.87,428.318 345.537,423.484 360.5,419.5C 361.416,419.543 362.083,419.876 362.5,420.5 Z"/></g>
<g><path style="opacity:1" fill="#fbfcfd" d="M 629.5,520.5 C 640.187,520.168 650.854,520.501 661.5,521.5C 654.361,537.448 646.528,552.782 638,567.5C 644.032,560.302 650.532,553.636 657.5,547.5C 671.886,532.468 689.219,522.301 709.5,517C 717.246,516.104 724.913,516.437 732.5,518C 735.667,519.833 738.167,522.333 740,525.5C 741.319,537.597 739.653,549.264 735,560.5C 731.578,567.343 728.245,574.01 725,580.5C 743.084,559.739 763.584,541.906 786.5,527C 799.472,519.257 813.472,515.591 828.5,516C 838.77,517.43 843.77,523.263 843.5,533.5C 843.424,539.713 842.257,545.713 840,551.5C 836.094,560.318 831.427,568.652 826,576.5C 813.422,593.323 801.089,610.323 789,627.5C 784.317,634.365 781.15,641.865 779.5,650C 779.711,657.043 783.377,660.543 790.5,660.5C 803.887,657.972 815.887,652.472 826.5,644C 856.62,618.552 882.453,589.385 904,556.5C 906.167,555 907.667,555.5 908.5,558C 884.575,597.796 853.575,631.13 815.5,658C 805.358,664.214 794.358,667.714 782.5,668.5C 763.642,667.812 755.476,658.145 758,639.5C 764.139,620.884 773.139,603.884 785,588.5C 796.653,573.865 807.319,558.531 817,542.5C 820.667,533.5 817.667,528.5 808,527.5C 796.26,530.286 785.427,535.12 775.5,542C 747.787,562.709 724.62,587.542 706,616.5C 696.249,631.666 686.749,646.999 677.5,662.5C 667.167,663.833 656.833,663.833 646.5,662.5C 668.758,625.657 690.258,588.323 711,550.5C 718.339,529.218 711.505,523.052 690.5,532C 673.312,541.508 658.145,553.675 645,568.5C 635.948,579.885 627.281,591.551 619,603.5C 607.167,623.167 595.333,642.833 583.5,662.5C 572.849,663.666 562.182,663.832 551.5,663C 565.376,641.418 578.876,619.585 592,597.5C 597.6,587.633 602.6,577.633 607,567.5C 591.737,579.109 575.07,581.775 557,575.5C 541.379,618.456 512.212,648.289 469.5,665C 453.901,669.977 438.568,669.31 423.5,663C 412.519,656.675 406.352,647.175 405,634.5C 403.591,620.365 406.258,607.031 413,594.5C 416.529,587.722 419.862,581.055 423,574.5C 409.519,580.344 396.353,579.678 383.5,572.5C 380.155,588.853 373.322,603.52 363,616.5C 346.04,638.052 324.873,653.886 299.5,664C 280.883,670.903 262.883,669.737 245.5,660.5C 233.651,649.495 228.651,635.829 230.5,619.5C 242.535,575.611 268.868,543.111 309.5,522C 326.344,513.794 343.677,512.461 361.5,518C 369.333,521.833 375.167,527.667 379,535.5C 382.046,544.367 384.379,553.367 386,562.5C 394.417,571.512 404.584,574.012 416.5,570C 420.953,568.274 425.286,566.274 429.5,564C 438.5,555.667 447.5,547.333 456.5,539C 473.28,524.903 492.614,516.736 514.5,514.5C 534.355,513.873 547.522,522.873 554,541.5C 556.077,549.372 557.41,557.372 558,565.5C 565.214,571.193 573.38,573.026 582.5,571C 609.111,564.226 624.778,547.393 629.5,520.5 Z"/></g>
<g><path style="opacity:1" fill="#3f86b5" d="M 507.5,522.5 C 512.511,522.334 517.511,522.501 522.5,523C 528.164,525.332 531.664,529.499 533,535.5C 531.8,582.067 513.3,620.234 477.5,650C 467.45,657.695 456.116,661.362 443.5,661C 437.159,659.325 432.659,655.492 430,649.5C 427.492,636.021 429.159,623.021 435,610.5C 447.706,580.145 466.206,553.979 490.5,532C 495.938,528.284 501.605,525.118 507.5,522.5 Z"/></g>
<g><path style="opacity:1" fill="#3f86b6" d="M 334.5,522.5 C 339.511,522.334 344.511,522.501 349.5,523C 355.616,525.451 359.116,529.951 360,536.5C 360.953,553.071 358.287,569.071 352,584.5C 341.88,610.611 326.047,632.444 304.5,650C 292.58,659.42 279.247,662.42 264.5,659C 259.206,655.583 256.039,650.75 255,644.5C 254.16,632.697 256.16,621.363 261,610.5C 273.706,580.145 292.206,553.979 316.5,532C 322.15,528.01 328.15,524.843 334.5,522.5 Z"/></g>
<g><path style="opacity:1" fill="#327db0" d="M 144.5,488.5 C 144.5,520.167 144.5,551.833 144.5,583.5C 143.502,552.004 143.168,520.338 143.5,488.5C 141.833,488.5 140.167,488.5 138.5,488.5C 138.5,546.833 138.5,605.167 138.5,663.5C 146.167,663.5 153.833,663.5 161.5,663.5C 161.082,664.222 160.416,664.722 159.5,665C 152.253,665.812 145.086,665.646 138,664.5C 136.886,632.851 136.386,601.184 136.5,569.5C 136.833,542.167 137.167,514.833 137.5,487.5C 140.25,485.922 142.583,486.255 144.5,488.5 Z"/></g>
<g><path style="opacity:1" fill="#2f75aa" d="M 629.5,520.5 C 640.321,519.505 651.321,519.172 662.5,519.5C 660.299,527.911 656.966,535.911 652.5,543.5C 654.494,543.827 656.161,545.16 657.5,547.5C 650.532,553.636 644.032,560.302 638,567.5C 646.528,552.782 654.361,537.448 661.5,521.5C 650.854,520.501 640.187,520.168 629.5,520.5 Z"/></g>
<g><path style="opacity:1" fill="#1268a4" d="M 144.5,488.5 C 145.333,524.998 145.833,561.664 146,598.5C 146.511,596.122 147.178,593.788 148,591.5C 148.464,592.094 148.631,592.761 148.5,593.5C 147.013,599.416 145.847,605.416 145,611.5C 144.5,602.173 144.334,592.839 144.5,583.5C 144.5,551.833 144.5,520.167 144.5,488.5 Z"/></g>
<g><path style="opacity:1" fill="#2870a9" d="M 230.5,619.5 C 228.651,635.829 233.651,649.495 245.5,660.5C 236.601,655.064 231.434,647.064 230,636.5C 229.186,630.078 229.353,624.411 230.5,619.5 Z"/></g>
</svg>
